<svg width="250" height="57" viewBox="0 0 250 57" fill="none" xmlns="http://www.w3.org/2000/svg">
<g clip-path="url(#clip0_1913_50473)">
<mask id="mask0_1913_50473" style="mask-type:luminance" maskUnits="userSpaceOnUse" x="0" y="-1" width="44" height="52">
<path d="M43.6866 37.8665H43.6932L21.8466 50.4976L0 37.8665V12.6173L21.8466 -0.00724411L43.6932 12.6173L21.8466 25.2419L43.6866 37.8665Z" fill="white"/>
</mask>
<g mask="url(#mask0_1913_50473)">
<path d="M43.6932 37.8657L21.8466 50.4902L0 37.8657V37.8591H43.6866L43.6932 37.8657Z" fill="#1D4ED8"/>
<path d="M21.8472 25.2412V-0.0144539L43.6937 12.6101V12.6166L21.8472 25.2412Z" fill="#1BB837"/>
<path d="M0 12.6101L21.8466 -0.0144539V25.2412L0 12.6101Z" fill="#1FDE42"/>
<path d="M21.8466 25.2413L43.6866 37.8594H0V12.6102L21.8466 25.2413Z" fill="#2563EB"/>
</g>
<path d="M146.751 46.1175C146.341 45.9875 145.914 45.917 145.485 45.908C145.036 45.8844 144.591 45.9976 144.208 46.2327C144.063 46.3286 143.943 46.4593 143.861 46.6129C143.779 46.7665 143.736 46.9383 143.737 47.1126C143.724 47.411 143.825 47.7031 144.02 47.9295C144.215 48.1518 144.459 48.3271 144.731 48.4428C145.003 48.558 145.39 48.7046 145.893 48.8722C146.405 49.0316 146.908 49.2204 147.399 49.4378C147.785 49.631 148.122 49.9106 148.383 50.2548C148.669 50.6727 148.809 51.1736 148.78 51.6793C148.793 52.1895 148.647 52.6909 148.362 53.1143C148.06 53.5366 147.647 53.8667 147.169 54.0674C146.611 54.2942 146.013 54.4047 145.411 54.3921C144.735 54.392 144.065 54.2529 143.444 53.9836C142.832 53.7416 142.271 53.3863 141.791 52.9362L142.356 51.805C142.775 52.2467 143.276 52.6024 143.831 52.8524C144.33 53.0842 144.872 53.2091 145.422 53.219C145.93 53.2461 146.435 53.1143 146.866 52.8419C147.039 52.7298 147.179 52.5739 147.273 52.39C147.367 52.2061 147.41 52.0007 147.399 51.7945C147.412 51.488 147.307 51.1884 147.106 50.9566C146.905 50.7359 146.659 50.5609 146.384 50.4433C145.998 50.2815 145.604 50.1416 145.202 50.0244C144.691 49.8699 144.191 49.6809 143.706 49.4588C143.318 49.2781 142.982 49.0004 142.733 48.6523C142.447 48.2422 142.307 47.748 142.335 47.2487C142.327 46.7683 142.466 46.2968 142.733 45.8976C143.022 45.4971 143.417 45.1852 143.873 44.9968C144.415 44.7775 144.995 44.6706 145.579 44.6825C146.126 44.6824 146.669 44.7672 147.19 44.9339C147.692 45.0886 148.169 45.3181 148.603 45.6148L148.079 46.7879C147.67 46.5035 147.223 46.2779 146.751 46.1175Z" fill="#303030"/>
<path d="M153.551 48.1915C153.125 48.1835 152.705 48.2922 152.337 48.5058C151.984 48.7148 151.697 49.0199 151.51 49.3856C151.299 49.7964 151.195 50.2539 151.207 50.7158C151.196 51.173 151.297 51.626 151.5 52.0356C151.682 52.4038 151.965 52.7125 152.316 52.9258C152.669 53.1498 153.081 53.2629 153.498 53.2506C153.911 53.2583 154.321 53.1798 154.702 53.0201C155.047 52.8711 155.352 52.6412 155.591 52.3498L156.282 53.083C155.967 53.4903 155.558 53.814 155.089 54.0256C154.571 54.253 154.011 54.3672 153.446 54.3608C152.814 54.372 152.192 54.2089 151.646 53.8895C151.123 53.587 150.698 53.1396 150.422 52.6011C150.133 52.0129 149.983 51.3661 149.983 50.7106C149.983 50.055 150.133 49.4082 150.422 48.82C150.696 48.2777 151.121 47.8265 151.646 47.5212C152.192 47.2017 152.814 47.0387 153.446 47.0499C153.986 47.0412 154.523 47.1372 155.026 47.3326C155.471 47.5106 155.869 47.7904 156.187 48.1496L155.528 49.019C155.272 48.7532 154.965 48.5427 154.625 48.4004C154.285 48.2581 153.919 48.187 153.551 48.1915Z" fill="#303030"/>
<path d="M163.867 47.7921C164.362 48.3732 164.61 49.1251 164.558 49.8869V54.3489H163.344V50.1907C163.373 49.6697 163.197 49.1581 162.853 48.7662C162.674 48.5907 162.461 48.4543 162.226 48.366C161.992 48.2776 161.742 48.2391 161.492 48.2529C161.191 48.2453 160.892 48.3053 160.616 48.4285C160.341 48.5518 160.097 48.7351 159.902 48.9652C159.488 49.4714 159.275 50.1131 159.306 50.7667V54.3175H158.092V44.189H159.306V48.6195C159.527 48.1112 159.901 47.684 160.375 47.397C160.849 47.11 161.4 46.9772 161.953 47.017C162.309 47.0029 162.663 47.0647 162.993 47.1984C163.323 47.332 163.621 47.5344 163.867 47.7921Z" fill="#303030"/>
<path d="M171.456 47.5719C171.988 47.8738 172.423 48.3206 172.712 48.8602C173.016 49.4415 173.171 50.0894 173.162 50.7455C173.171 51.405 173.016 52.0563 172.712 52.6414C172.424 53.1842 171.989 53.6344 171.456 53.9401C170.89 54.2491 170.255 54.411 169.609 54.411C168.964 54.411 168.329 54.2491 167.763 53.9401C167.228 53.6425 166.791 53.1947 166.507 52.6518C166.204 52.0659 166.046 51.4158 166.046 50.756C166.046 50.0963 166.204 49.4462 166.507 48.8602C166.791 48.3174 167.228 47.8696 167.763 47.5719C168.329 47.2629 168.964 47.1011 169.609 47.1011C170.255 47.1011 170.89 47.2629 171.456 47.5719ZM168.401 48.5355C168.046 48.7565 167.76 49.0721 167.574 49.4468C167.377 49.8585 167.277 50.3099 167.281 50.7665C167.277 51.2264 167.377 51.6814 167.574 52.0967C167.753 52.4765 168.041 52.7939 168.401 53.008C168.766 53.2204 169.182 53.3323 169.604 53.3323C170.027 53.3323 170.442 53.2204 170.807 53.008C171.168 52.7939 171.456 52.4765 171.634 52.0967C171.836 51.683 171.937 51.2269 171.927 50.7665C171.937 50.3094 171.836 49.8568 171.634 49.4468C171.448 49.0721 171.162 48.7565 170.807 48.5355C170.442 48.323 170.027 48.2111 169.604 48.2111C169.182 48.2111 168.766 48.323 168.401 48.5355Z" fill="#303030"/>
<path d="M174.928 44.189H176.141V54.3175H174.928V44.189Z" fill="#303030"/>
<path d="M182.774 54.3186V53.2712C182.49 53.6327 182.12 53.9176 181.698 54.1005C181.276 54.2833 180.815 54.3583 180.357 54.3186C179.919 54.3279 179.484 54.2309 179.091 54.0358C178.743 53.8543 178.453 53.5784 178.254 53.2397C178.055 52.8966 177.953 52.5053 177.961 52.1085C177.949 51.8169 178.004 51.5264 178.122 51.2594C178.24 50.9925 178.418 50.7562 178.641 50.5688C179.198 50.162 179.878 49.9586 180.566 49.9928H182.774V49.6681C182.785 49.4504 182.75 49.2329 182.673 49.0292C182.595 48.8255 182.477 48.6401 182.324 48.4845C181.951 48.189 181.481 48.0434 181.006 48.076C180.245 48.1122 179.514 48.3829 178.913 48.8511L178.401 47.9817C178.827 47.6777 179.291 47.4312 179.782 47.2485C180.271 47.0886 180.784 47.0108 181.299 47.0181C182.027 46.9706 182.745 47.2114 183.297 47.6884C183.539 47.9285 183.728 48.2165 183.853 48.5339C183.977 48.8513 184.034 49.1912 184.019 49.5319V54.2872L182.774 54.3186ZM182.052 52.8941C182.241 52.7628 182.403 52.5953 182.527 52.4011C182.651 52.2069 182.735 51.9899 182.774 51.7629V51.0402H180.744C180.321 51.0104 179.898 51.0974 179.52 51.2915C179.388 51.3834 179.282 51.5079 179.212 51.6529C179.143 51.7979 179.112 51.9585 179.123 52.119C179.115 52.2877 179.148 52.4559 179.219 52.6091C179.29 52.7623 179.397 52.896 179.531 52.9988C179.831 53.2274 180.2 53.3458 180.577 53.334C181.117 53.36 181.651 53.2052 182.094 52.8941H182.052Z" fill="#303030"/>
<path d="M188.386 47.4683C188.833 47.1943 189.347 47.0493 189.871 47.0493V48.2853C189.562 48.257 189.25 48.2926 188.955 48.3899C188.66 48.4872 188.387 48.6441 188.155 48.8509C187.713 49.2924 187.449 49.8815 187.412 50.5058V54.3184H186.199V47.0912H187.412V48.6204C187.617 48.1491 187.955 47.7484 188.386 47.4683Z" fill="#303030"/>
<path d="M194.033 48.2547C193.712 48.1508 193.377 48.0943 193.039 48.0872C192.731 48.0718 192.425 48.1483 192.161 48.3071C192.05 48.3733 191.96 48.4691 191.9 48.5839C191.841 48.6987 191.815 48.8278 191.826 48.9565C191.823 49.089 191.856 49.2198 191.92 49.3356C191.985 49.4515 192.078 49.5483 192.192 49.6164C192.553 49.8117 192.936 49.9629 193.332 50.0668C193.734 50.1836 194.125 50.3307 194.504 50.5067C194.812 50.6553 195.081 50.8742 195.289 51.1456C195.512 51.4755 195.622 51.8687 195.603 52.2664C195.621 52.5671 195.563 52.8674 195.435 53.1401C195.307 53.4127 195.113 53.6489 194.871 53.827C194.327 54.193 193.683 54.3797 193.029 54.3612C192.519 54.3584 192.013 54.2699 191.533 54.0993C191.075 53.9455 190.656 53.6915 190.309 53.3557L190.759 52.434C191.062 52.7161 191.417 52.9367 191.805 53.0833C192.2 53.2449 192.623 53.3302 193.05 53.3347C193.386 53.3473 193.719 53.2676 194.013 53.1043C194.133 53.0302 194.23 52.9247 194.295 52.7992C194.359 52.6737 194.388 52.5329 194.379 52.392C194.388 52.246 194.356 52.1003 194.288 51.971C194.22 51.8416 194.117 51.7336 193.992 51.6588C193.626 51.4413 193.231 51.2756 192.82 51.1666C192.433 51.0546 192.056 50.9146 191.69 50.7476C191.396 50.6052 191.141 50.393 190.947 50.1296C190.73 49.8244 190.62 49.4564 190.633 49.0822C190.615 48.7897 190.671 48.4973 190.795 48.2319C190.919 47.9665 191.108 47.7367 191.344 47.5634C191.866 47.213 192.485 47.037 193.113 47.0607C193.531 47.0614 193.948 47.1249 194.347 47.2492C194.721 47.3544 195.074 47.5208 195.394 47.7415L194.944 48.7156C194.661 48.5245 194.355 48.3696 194.033 48.2547Z" fill="#303030"/>
<path d="M203.051 47.7921C203.545 48.3732 203.793 49.1251 203.741 49.8869V54.3489H202.527V50.1907C202.556 49.6697 202.38 49.1581 202.036 48.7662C201.86 48.5899 201.649 48.4529 201.416 48.3644C201.183 48.276 200.934 48.2379 200.686 48.2529C200.383 48.2488 200.084 48.3104 199.807 48.4333C199.531 48.5563 199.285 48.7377 199.085 48.9652C198.679 49.4752 198.471 50.1151 198.499 50.7667V54.3175H197.275V44.189H198.468V48.6195C198.688 48.1102 199.061 47.6822 199.536 47.395C200.01 47.1078 200.562 46.9757 201.115 47.017C201.474 46.9985 201.833 47.0582 202.168 47.192C202.502 47.3258 202.803 47.5305 203.051 47.7921Z" fill="#303030"/>
<path d="M207.069 44.43C207.212 44.5913 207.287 44.8013 207.279 45.0165C207.284 45.2312 207.209 45.4401 207.069 45.6031C206.999 45.6757 206.914 45.7335 206.821 45.7731C206.727 45.8126 206.627 45.8332 206.525 45.8335C206.424 45.8344 206.323 45.8144 206.229 45.7747C206.136 45.7351 206.051 45.6767 205.981 45.6031C205.834 45.4439 205.755 45.2333 205.762 45.0165C205.757 44.9089 205.774 44.8015 205.811 44.7007C205.849 44.5999 205.907 44.5078 205.981 44.43C206.049 44.3529 206.133 44.2914 206.227 44.2498C206.321 44.2083 206.423 44.1875 206.525 44.189C206.628 44.1889 206.729 44.2102 206.823 44.2517C206.917 44.2932 207.001 44.3539 207.069 44.43ZM205.919 47.0694H207.132V54.2966H205.919V47.0694Z" fill="#303030"/>
<path d="M215.084 47.5728C215.595 47.8798 216.002 48.3319 216.256 48.8716C216.547 49.4639 216.691 50.118 216.674 50.7779C216.687 51.4296 216.547 52.0752 216.266 52.6633C215.999 53.1626 215.596 53.5764 215.105 53.8573C214.583 54.1682 213.985 54.3277 213.378 54.3182C212.841 54.3268 212.31 54.1931 211.84 53.9307C211.398 53.6891 211.035 53.3256 210.794 52.8833V56.9996H209.57V47.1329H210.794V48.5679C211.037 48.127 211.4 47.7639 211.84 47.5205C212.307 47.2589 212.834 47.1252 213.368 47.1329C213.97 47.1173 214.564 47.2697 215.084 47.5728ZM214.32 52.9775C214.675 52.7548 214.958 52.4349 215.136 52.0558C215.336 51.6464 215.44 51.1968 215.44 50.7413C215.44 50.2857 215.336 49.8361 215.136 49.4268C214.951 49.0521 214.664 48.7365 214.31 48.5155C213.953 48.2905 213.538 48.174 213.117 48.1803C212.696 48.1784 212.283 48.294 211.925 48.5142C211.566 48.7344 211.276 49.0505 211.087 49.4268C210.896 49.8404 210.797 50.2907 210.797 50.7465C210.797 51.2023 210.896 51.6526 211.087 52.0663C211.276 52.4417 211.566 52.7571 211.924 52.9775C212.282 53.1978 212.696 53.3105 213.117 53.3022C213.546 53.2951 213.964 53.1641 214.32 52.9251V52.9775Z" fill="#303030"/>
<path d="M221.929 44.7549H227.903V45.949H223.205V49.0912H227.39V50.2747H223.205V54.3178H221.95L221.929 44.7549Z" fill="#303030"/>
<path d="M230.392 44.4305C230.466 44.5083 230.524 44.6004 230.562 44.7013C230.6 44.8021 230.617 44.9095 230.612 45.0171C230.618 45.2339 230.539 45.4445 230.392 45.6036C230.251 45.7393 230.064 45.8151 229.869 45.8151C229.674 45.8151 229.486 45.7393 229.346 45.6036C229.198 45.4445 229.119 45.2339 229.126 45.0171C229.121 44.9095 229.138 44.8021 229.176 44.7013C229.213 44.6004 229.271 44.5083 229.346 44.4305C229.414 44.3609 229.495 44.3055 229.585 44.2677C229.675 44.2299 229.771 44.2104 229.869 44.2104C229.966 44.2104 230.063 44.2299 230.152 44.2677C230.242 44.3055 230.324 44.3609 230.392 44.4305ZM229.241 47.07H230.465V54.2972H229.241V47.07Z" fill="#303030"/>
<path d="M235.019 47.4683C235.47 47.1939 235.987 47.049 236.515 47.0493V48.2853C236.206 48.2557 235.893 48.2907 235.598 48.3881C235.303 48.4854 235.031 48.643 234.799 48.8509C234.348 49.2864 234.082 49.8791 234.056 50.5058V54.3184H232.832V47.0912H234.046V48.6204C234.246 48.1464 234.585 47.7446 235.019 47.4683Z" fill="#303030"/>
<path d="M240.667 48.2545C240.349 48.1505 240.018 48.0941 239.683 48.0869C239.372 48.0707 239.062 48.1473 238.794 48.3069C238.685 48.3748 238.596 48.471 238.537 48.5853C238.478 48.6997 238.451 48.8279 238.459 48.9563C238.457 49.09 238.491 49.2219 238.557 49.338C238.623 49.4541 238.719 49.5503 238.836 49.6162C239.194 49.8098 239.573 49.9609 239.966 50.0666C240.37 50.1854 240.765 50.3324 241.148 50.5064C241.454 50.6534 241.72 50.8727 241.922 51.1454C242.149 51.474 242.263 51.8672 242.247 52.2661C242.263 52.5676 242.203 52.8683 242.073 53.1408C241.943 53.4134 241.748 53.6492 241.504 53.8268C240.963 54.1973 240.317 54.3846 239.662 54.361C239.152 54.3582 238.647 54.2697 238.166 54.0991C237.71 53.9401 237.293 53.6867 236.942 53.3554L237.402 52.4337C237.703 52.72 238.059 52.941 238.449 53.0831C238.84 53.2446 239.26 53.3299 239.683 53.3345C240.022 53.3453 240.358 53.2658 240.656 53.104C240.775 53.0283 240.871 52.9225 240.935 52.7974C241 52.6723 241.03 52.5323 241.023 52.3918C241.029 52.2461 240.997 52.1013 240.929 51.9724C240.861 51.8434 240.759 51.7351 240.635 51.6586C240.268 51.4431 239.874 51.2775 239.464 51.1663C239.077 51.0544 238.699 50.9144 238.334 50.7474C238.037 50.6036 237.779 50.3918 237.58 50.1294C237.371 49.8209 237.265 49.4544 237.277 49.082C237.258 48.7904 237.312 48.4986 237.434 48.2333C237.557 47.968 237.743 47.7376 237.978 47.5632C238.5 47.2141 239.119 47.0382 239.746 47.0605C240.165 47.06 240.581 47.1236 240.981 47.249C241.355 47.3521 241.709 47.5186 242.027 47.7413L241.588 48.7154C241.301 48.5244 240.991 48.3696 240.667 48.2545Z" fill="#303030"/>
<path d="M247.573 53.8569C247.098 54.1934 246.533 54.3795 245.951 54.3911C245.705 54.402 245.459 54.3621 245.228 54.2738C244.998 54.1855 244.788 54.0507 244.612 53.8779C244.427 53.667 244.286 53.4212 244.198 53.1549C244.11 52.8886 244.076 52.6073 244.099 52.3277V48.3057H243.126V47.342H244.099V45.4043H245.334V47.342H247.426V48.3057H245.334V52.0763C245.308 52.3778 245.382 52.6793 245.543 52.9352C245.619 53.0264 245.715 53.0979 245.825 53.1435C245.934 53.1891 246.053 53.2075 246.171 53.1971C246.544 53.1775 246.905 53.0581 247.217 52.8514L247.573 53.8569Z" fill="#303030"/>
<path d="M60.5493 18.209H60.5513C61.9936 18.2152 63.4184 18.5283 64.731 19.127L64.7368 19.1289C65.988 19.6695 67.1182 20.4526 68.0688 21.4277L65.8306 24.2705C65.1877 23.5402 64.4155 22.9324 63.5522 22.4795C62.6493 21.9842 61.6385 21.719 60.6089 21.707H60.6079C59.5256 21.6967 58.4614 21.9746 57.5239 22.5107L57.3384 22.6211C56.3562 23.2273 55.5544 24.0863 55.0171 25.1084C54.4477 26.1755 54.1573 27.3695 54.1724 28.5791C54.1565 29.7953 54.4471 30.9961 55.0171 32.0703V32.0693C55.5529 33.1005 56.3534 33.9701 57.3364 34.5889C58.3154 35.2046 59.4498 35.5259 60.606 35.5166L60.6069 35.5176C61.6089 35.512 62.5967 35.2781 63.4946 34.833L63.4937 34.832C64.3525 34.4125 65.1383 33.8598 65.8237 33.1953L68.0835 35.7559C67.0807 36.7856 65.9017 37.6283 64.5981 38.2363L64.5942 38.2383C63.2782 38.8764 61.8367 39.2133 60.3745 39.2246H60.3726C58.5435 39.2491 56.7422 38.7725 55.1646 37.8457V37.8447C53.6169 36.9389 52.3451 35.6271 51.4878 34.0508V34.0498L51.3228 33.7383C50.5247 32.1678 50.1191 30.4246 50.144 28.6592H50.145L50.144 28.6504C50.12 26.7866 50.5921 24.95 51.5112 23.3291C52.3995 21.7632 53.6951 20.4663 55.2593 19.5771C56.8702 18.6594 58.696 18.1872 60.5493 18.209Z" fill="#1FDE42" stroke="#1FDE42" stroke-width="0.625547"/>
<path d="M75.4648 18.5547V35.3945H84.0879V38.9053H71.5283V18.5547H75.4648Z" fill="#1FDE42" stroke="#1FDE42" stroke-width="0.625547"/>
<path d="M91.1143 23.3818V38.8779H87.3145V23.3818H91.1143ZM89.1826 16.2178C89.4624 16.2085 89.7411 16.2594 90 16.3662C90.2569 16.4722 90.4884 16.6313 90.6797 16.833C91.0649 17.296 91.2763 17.8796 91.2764 18.4824C91.2764 19.0866 91.0635 19.6713 90.6768 20.1348C90.4859 20.3352 90.2558 20.4941 90 20.5996C89.7411 20.7064 89.4624 20.7563 89.1826 20.7471H89.1631C88.8879 20.7545 88.6145 20.7021 88.3613 20.5938C88.1081 20.4854 87.8812 20.3235 87.6963 20.1191C87.3147 19.6572 87.1056 19.0763 87.1055 18.4766C87.1055 17.8759 87.3146 17.2933 87.6973 16.8311C87.8839 16.6319 88.1108 16.4748 88.3623 16.3691C88.6158 16.2626 88.8892 16.2107 89.1641 16.2178L89.1729 16.2188L89.1826 16.2178Z" fill="#1FDE42" stroke="#1FDE42" stroke-width="0.625547"/>
<path d="M105.117 18.1699C106.985 18.1699 108.824 18.6405 110.463 19.5391V19.54C112.046 20.4246 113.357 21.7264 114.254 23.3037V23.3027C115.235 25.0614 115.714 27.0563 115.641 29.0693C115.567 31.0828 114.942 33.0374 113.835 34.7197C112.686 36.4593 111.013 37.7881 109.06 38.5137L108.676 38.6562L108.914 38.9893C109.249 39.457 109.683 39.8453 110.185 40.127C110.686 40.4087 111.244 40.5766 111.817 40.6191L111.835 40.6211L111.853 40.6201C112.47 40.5961 113.074 40.4337 113.621 40.1465C114.204 39.8649 114.757 39.5253 115.271 39.1338L116.604 41.6592C115.893 42.2865 115.08 42.7872 114.196 43.1348L114.19 43.1377C113.274 43.5172 112.294 43.7159 111.303 43.7256C110.055 43.7344 108.837 43.3433 107.829 42.6074H107.83C106.695 41.764 105.783 40.6547 105.175 39.377L105.091 39.2002L104.895 39.1992L104.55 39.1904C102.824 39.1214 101.14 38.6269 99.6484 37.748H99.6475C98.1075 36.8311 96.8381 35.5203 95.9697 33.9512C95.0855 32.3147 94.626 30.4817 94.6338 28.6211C94.6416 26.7594 95.1167 24.9286 96.0156 23.2988C96.9073 21.7314 98.2049 20.4337 99.7705 19.541C101.409 18.6418 103.248 18.17 105.117 18.1699ZM105.184 21.7139C104.099 21.7092 103.033 21.994 102.097 22.5371L101.911 22.6484C100.909 23.263 100.088 24.1342 99.5342 25.1719C98.9518 26.2477 98.6517 27.4543 98.6621 28.6777C98.6473 29.9126 98.9523 31.1304 99.5479 32.2119L99.5518 32.21C100.117 33.2436 100.934 34.1169 101.93 34.7461V34.7451C102.899 35.3605 104.022 35.6875 105.17 35.6875C106.318 35.6875 107.441 35.3606 108.41 34.7451C109.398 34.1176 110.202 33.2382 110.737 32.1973L110.736 32.1963C111.302 31.1108 111.594 29.9031 111.586 28.6787C111.597 27.4584 111.304 26.254 110.734 25.1748C110.194 24.1439 109.394 23.2732 108.411 22.6504H108.412C107.451 22.0311 106.33 21.706 105.187 21.7139H105.184Z" fill="#1FDE42" stroke="#1FDE42" stroke-width="0.625547"/>
<path d="M134.898 22.7573C134.041 22.2846 133.081 22.0314 132.102 22.02C131.005 22.0087 129.927 22.3096 128.993 22.8878C128.058 23.4649 127.295 24.2828 126.784 25.2561C126.238 26.2791 125.96 27.4238 125.976 28.5835C125.957 29.7539 126.235 30.9098 126.784 31.9435C127.294 32.9262 128.057 33.7549 128.993 34.3445C129.924 34.9296 131.003 35.2352 132.102 35.2253C133.054 35.2192 133.993 34.9961 134.846 34.5728C135.774 34.1196 136.615 33.5056 137.329 32.7591L140.001 35.7864C138.932 36.9412 137.648 37.8764 136.221 38.5396C134.863 39.198 133.376 39.5457 131.867 39.5574C129.981 39.5828 128.124 39.0909 126.497 38.1351C124.9 37.2005 123.588 35.8469 122.704 34.2205C121.774 32.5219 121.298 30.6117 121.322 28.6748C121.297 26.7554 121.783 24.8638 122.73 23.1944C123.646 21.5794 124.982 20.2426 126.595 19.3255C128.254 18.3808 130.135 17.8944 132.043 17.9162C133.53 17.9219 134.999 18.2444 136.351 18.8623C137.724 19.4554 138.959 20.3287 139.975 21.4263L137.329 24.7668C136.667 23.9353 135.839 23.2509 134.898 22.7573Z" fill="#2563EB"/>
<path d="M157.357 39.1918L155.78 35.1141H146.466L144.889 39.1918H140.203L148.943 18.2422H153.623L162.239 39.1918H157.357ZM147.965 31.2908H154.313L151.159 23.1615L147.965 31.2908Z" fill="#2563EB"/>
<path d="M164.318 18.2422H169.409L175.672 31.1277L181.844 18.2422H186.875V39.2179H182.795V25.0144L177.073 37.0649H174.147L168.398 25.0144V39.1918H164.318V18.2422Z" fill="#2563EB"/>
<path d="M205.815 20.1147C207.209 21.3869 207.913 23.1811 207.913 25.4972C207.913 27.9373 207.209 29.8294 205.802 31.1734C204.394 32.5174 202.415 33.1916 199.864 33.1959H195.869V39.1918H191.307V18.2422H199.838C202.423 18.2422 204.415 18.8663 205.815 20.1147ZM202.556 28.3288C202.91 27.9825 203.184 27.5632 203.359 27.1002C203.535 26.6371 203.608 26.1413 203.573 25.6473C203.607 25.164 203.534 24.679 203.358 24.2276C203.182 23.7762 202.908 23.3697 202.556 23.0376C201.713 22.396 200.667 22.0809 199.61 22.1503H195.869V29.2552H199.636C200.699 29.3227 201.749 28.9925 202.582 28.3288H202.556Z" fill="#2563EB"/>
<path d="M216.23 34.0832C216.65 34.5195 217.157 34.8615 217.719 35.0864C218.281 35.3114 218.884 35.4142 219.489 35.3881C220.078 35.4129 220.667 35.3091 221.212 35.0838C221.758 34.8584 222.249 34.5171 222.649 34.0832C223.482 33.0896 223.904 31.8155 223.829 30.521V18.2422H228.391V30.5601C228.432 32.2165 228.063 33.8572 227.316 35.3359C226.622 36.6621 225.546 37.7487 224.227 38.4546C222.762 39.2124 221.13 39.5872 219.482 39.5441C217.826 39.584 216.186 39.2095 214.711 38.4546C213.38 37.7524 212.29 36.6658 211.583 35.3359C210.823 33.8611 210.447 32.2188 210.488 30.5601V18.2422H215.05V30.5601C214.974 31.8429 215.397 33.1053 216.23 34.0832Z" fill="#2563EB"/>
<path d="M242.404 22.4826C241.45 22.1346 240.447 21.9387 239.432 21.902C238.779 21.8684 238.129 22.0247 237.562 22.3521C237.344 22.4904 237.165 22.6838 237.045 22.9129C236.925 23.1419 236.867 23.3985 236.878 23.657C236.868 24.0034 236.955 24.3455 237.131 24.6443C237.306 24.9431 237.561 25.1866 237.868 25.3468C238.839 25.8645 239.864 26.2715 240.925 26.5603C242.098 26.9054 243.245 27.3305 244.36 27.8326C245.265 28.2635 246.049 28.9138 246.641 29.7246C247.315 30.6962 247.65 31.8638 247.592 33.0455C247.623 34.2793 247.265 35.4915 246.569 36.5099C245.868 37.4965 244.897 38.2599 243.773 38.7086C242.486 39.2282 241.107 39.4833 239.719 39.4589C238.077 39.4557 236.449 39.1528 234.916 38.5651C233.416 38.005 232.032 37.171 230.836 36.1054L232.648 32.2365C233.675 33.2031 234.861 33.9844 236.154 34.5461C237.29 35.0818 238.523 35.3772 239.778 35.4139C240.547 35.4586 241.312 35.2723 241.974 34.8789C242.229 34.7092 242.435 34.4764 242.574 34.2031C242.712 33.9299 242.777 33.6255 242.763 33.3195C242.771 33.0723 242.728 32.826 242.638 32.596C242.547 32.3659 242.41 32.1569 242.235 31.982C241.842 31.6125 241.382 31.3223 240.879 31.1274C240.338 30.9121 239.576 30.6576 238.624 30.3836C237.473 30.062 236.345 29.6609 235.248 29.1831C234.358 28.7686 233.584 28.1412 232.993 27.3563C232.321 26.4056 231.986 25.2573 232.042 24.0941C232.018 22.9148 232.36 21.7571 233.019 20.7798C233.704 19.8068 234.651 19.0487 235.75 18.5941C237.043 18.0617 238.432 17.8019 239.83 17.8308C242.548 17.8406 245.205 18.6432 247.475 20.1404L245.722 24.055C244.685 23.3968 243.57 22.8687 242.404 22.4826Z" fill="#2563EB"/>
<path d="M108.165 8.10938L107.005 14.3597" stroke="#1BB837" stroke-width="1.87664" stroke-miterlimit="10" stroke-linecap="round"/>
<path d="M114.174 10.7656L110.413 15.5936" stroke="#1BB837" stroke-width="1.87664" stroke-miterlimit="10" stroke-linecap="round"/>
<path d="M102.089 8.12207L103.242 14.3724" stroke="#1BB837" stroke-width="1.87664" stroke-miterlimit="10" stroke-linecap="round"/>
<path d="M96.0752 10.7788L99.8358 15.6068" stroke="#1BB837" stroke-width="1.87664" stroke-miterlimit="10" stroke-linecap="round"/>
</g>
<defs>
<clipPath id="clip0_1913_50473">
<rect width="250" height="57" fill="white"/>
</clipPath>
</defs>
</svg>
